<?xml version="1.0" encoding="UTF-8"?><svg id="Layer_1" xmlns="http://www.w3.org/2000/svg" viewBox="0 0 1462 761.5"><defs><style>.cls-1{font-family:PowerGrotesk-Regular, 'Power Grotesk';font-size:87.06px;}.cls-1,.cls-2{fill:#fff;}.cls-3{letter-spacing:.03em;}.cls-4{letter-spacing:0em;}.cls-2{stroke-width:0px;}.cls-5{letter-spacing:.02em;}.cls-6{letter-spacing:.02em;}.cls-7{letter-spacing:.02em;}</style></defs><path class="cls-2" d="m117.32,95.14c27.6-.42,62.32,12.97,81.56,33.05,6.69,6.69,11.29,18.82,14.22,27.6h.84c-2.93-9.2-5.44-21.33-5.44-30.95V14h40.99v292.79h-40.99v-25.51c0-9.62,2.51-21.75,5.44-30.53l-.84-.42c-2.93,8.78-7.53,20.91-14.22,27.61-19.66,19.66-53.96,31.37-81.56,31.37-62.32,0-99.55-34.72-99.55-107.08s37.23-106.66,99.55-107.08Zm-58.56,107.08c0,49.36,21.33,71.95,71.95,71.95,37.23,0,77.8-26.77,77.8-71.95s-40.57-73.61-77.8-73.2c-51.03.42-71.95,23.84-71.95,73.2Z"/><path class="cls-2" d="m270.81,202.22c0-72.36,52.7-107.5,114.61-107.08,61.49.42,111.26,34.72,111.26,107.08,0,5.86,0,6.28-.84,11.71h-182.37c6.27,41.41,34.3,62.32,72.78,61.91,32.21-.42,57.72-10.46,69.43-41.41l37.64,5.02c-15.89,50.61-58.56,69.43-107.92,69.85-61.9.42-114.61-34.72-114.61-107.08Zm42.67,11.71c6.27-22.59,16.31-25.1,36.39-25.1h107.92c-5.86-42.66-33.46-61.07-71.53-61.49-37.23-.42-76.96,28.03-72.78,86.58Z"/><path class="cls-2" d="m521.35,97.65h41.41v26.77c0,9.62-2.51,21.75-5.44,30.95h.84c2.93-8.78,7.53-20.91,14.22-27.61,19.24-20.08,53.54-33.05,80.73-32.63,62.32.42,99.55,34.72,99.55,107.08s-37.23,107.08-99.55,107.08c-27.19,0-61.49-12.13-80.73-31.79-6.69-6.69-11.29-18.82-14.22-27.61h-.84c2.93,9.2,5.44,21.33,5.44,30.95v63.23h-40.99l-.42-246.43Zm118.37,177.77c51.03,0,71.95-23.84,71.95-73.2s-20.5-71.52-71.95-71.94c-36.81-.42-76.96,26.77-76.96,71.94s40.16,73.2,76.96,73.2Z"/><path class="cls-2" d="m830.87,97.65h84.07v38.48l-70.69.42c-23.42,0-28.02,2.51-28.02,31.37v138.87h-40.99v-153.09c0-37.64,17.57-56.05,55.63-56.05Z"/><path class="cls-2" d="m914.94,202.22c0-72.36,53.54-107.5,115.44-107.08,62.32.42,115.86,34.72,115.86,107.08s-53.54,107.08-115.86,107.08-115.44-34.72-115.44-107.08Zm40.99,0c0,48.94,33.04,71.95,74.45,71.95s74.87-23.84,74.87-71.95-35.14-71.94-74.87-72.36c-38.48-.42-74.45,25.1-74.45,72.36Z"/><path class="cls-2" d="m1167.98,97.65h41.41v26.77c0,9.62-2.51,21.75-5.44,30.95h.84c2.93-8.78,7.53-20.91,14.22-27.61,19.24-20.08,53.54-33.05,80.73-32.63,62.32.42,99.55,34.72,99.55,107.08s-37.23,107.08-99.55,107.08c-27.19,0-61.49-12.13-80.73-31.79-6.69-6.69-11.29-18.82-14.22-27.61h-.84c2.93,9.2,5.44,21.33,5.44,30.95v63.23h-40.99l-.42-246.43Zm118.37,177.77c51.03,0,71.94-23.84,71.94-73.2s-20.5-71.52-71.94-71.94c-36.81-.42-76.96,26.77-76.96,71.94s40.15,73.2,76.96,73.2Z"/><path class="cls-2" d="m64.7,518.04c3.76,28.02,25.51,37.64,62.74,37.64,39.73,0,61.07-10.87,61.07-38.06,0-39.32-159.78-1.67-159.78-79.47,0-60.23,73.2-64.83,99.13-64.83,32.63,0,89.93,10.04,96.21,56.47l-37.23,5.44c-4.19-23.01-23.42-29.7-59.81-29.7s-57.3,7.53-57.3,33.88c0,40.16,159.78,2.51,159.78,79.06,0,64-76.54,69.43-102.9,69.43-24.26,0-96.62-7.11-101.64-62.74l39.73-7.11Z"/><path class="cls-2" d="m238.28,413.06v-38.48h7.95c19.24,0,43.5-34.72,43.5-63.58l41.41-.42c-.83,23.01-11.29,45.59-30.53,58.56-7.11,4.6-18.82,5.85-27.19,7.53v.83c8.37-1.67,19.66-2.93,28.03-2.93h74.04v38.48h-53.12v111.26c0,18.4,10.04,22.59,23.01,22.59h40.15v38.48h-38.06c-54.79,0-66.09-20.5-66.09-69.02v-103.31h-43.08Z"/><path class="cls-2" d="m398.05,482.07v-106.66h40.99v106.66c0,44.34,17.15,64.41,51.03,64.41,17.99,0,58.14-14.64,58.14-92.86v-78.22h40.99v209.14h-40.99v-40.15c0-8.78,1.67-19.66,3.35-28.03l-.83-.42c-7.95,39.32-30.95,71.94-75.29,71.94-60.65,0-77.38-50.61-77.38-105.82Z"/><path class="cls-2" d="m725.55,373.74c27.6-.42,62.32,12.97,81.56,33.05,6.69,6.69,11.29,18.82,14.22,27.6h.84c-2.93-9.2-5.44-21.33-5.44-30.95v-94.18h40.99v276.12h-40.99v-25.51c0-9.62,2.51-21.75,5.44-30.53l-.84-.42c-2.93,8.78-7.53,20.91-14.22,27.61-19.66,19.66-53.96,31.37-81.56,31.37-62.32,0-99.55-34.72-99.55-107.08s37.23-106.66,99.55-107.08Zm-58.56,107.08c0,49.36,21.33,71.95,71.95,71.95,37.23,0,77.8-26.77,77.8-71.95s-40.57-73.61-77.8-73.2c-51.03.42-71.95,23.84-71.95,73.2Z"/><path class="cls-2" d="m881.98,344.22v-35.55h42.25v35.55h-42.25Zm.84,241.17h40.57v-209.14h-40.57v209.14Z"/><path class="cls-2" d="m1176.85,480.7c-.05-72.28-53.56-106.54-115.86-106.96-61.86-.42-115.38,34.68-115.43,106.96,0,.04-.01.08-.01.11,0,72.37,53.54,107.08,115.44,107.08s115.87-34.71,115.87-107.08c0-.03,0-.07,0-.11Zm-115.86,72.06c-41.4,0-74.45-23-74.45-71.95,0-.03,0-.07,0-.11.05-47.19,35.99-72.66,74.44-72.25,39.71.42,74.82,25.06,74.87,72.25,0,.04.01.08.01.11,0,48.11-34.3,71.95-74.88,71.95Z"/><polygon class="cls-2" points="1428.62 390.87 1338.65 415.11 1325.49 461.95 1439.33 431.28 1428.62 390.87"/><polygon class="cls-2" points="1311.46 336.01 1287.47 426.04 1321.46 460.86 1351.81 346.94 1311.46 336.01"/><polygon class="cls-2" points="1205.37 410.04 1271.35 475.83 1318.49 463.81 1235.01 380.56 1205.37 410.04"/><polygon class="cls-2" points="1216.43 538.93 1306.4 514.69 1319.56 467.85 1205.72 498.52 1216.43 538.93"/><polygon class="cls-2" points="1333.59 593.79 1357.58 503.76 1323.59 468.94 1293.24 582.86 1333.59 593.79"/><polygon class="cls-2" points="1439.68 519.77 1373.7 453.97 1326.56 465.99 1410.04 549.24 1439.68 519.77"/><text class="cls-1" transform="translate(25.67 701.12)"><tspan class="cls-3" x="0" y="0">D</tspan><tspan class="cls-7" x="62.33" y="0">ec</tspan><tspan class="cls-5" x="166.02" y="0">or </tspan><tspan class="cls-7" x="275.62" y="0">w</tspan><tspan class="cls-3" x="357.02" y="0">ith ea</tspan><tspan class="cls-6" x="585.45" y="0">s</tspan><tspan class="cls-3" x="633.59" y="0">e, budg</tspan><tspan class="cls-4" x="939.59" y="0">e</tspan><tspan class="cls-3" x="991.04" y="0">t at pea</tspan><tspan class="cls-7" x="1314.01" y="0">c</tspan><tspan class="cls-3" x="1364.94" y="0">e</tspan></text></svg>